<svg width="200" height="197" viewBox="0 0 200 197" fill="none" xmlns="http://www.w3.org/2000/svg">
<rect x="51" width="22" height="55" rx="10" fill="#FBAB55"/>
<rect x="127" width="22" height="55" rx="10" fill="#FBAB55"/>
<path d="M42 42.0636C42 43.5178 42 44.2449 41.8061 44.8447C41.6534 45.3172 41.4863 45.6374 41.1861 46.0329C40.805 46.535 40.1097 47.0198 38.7193 47.9893C28.6132 55.0363 22 66.7452 22 80V136C22 157.539 39.4609 175 61 175H139C160.539 175 178 157.539 178 136V80C178 66.7452 171.387 55.0363 161.281 47.9893C159.89 47.0198 159.195 46.535 158.814 46.0329C158.514 45.6374 158.347 45.3172 158.194 44.8447C158 44.2449 158 43.5178 158 42.0636V31.1239C158 27.9565 158 26.3729 158.845 25.2885C159.392 24.5875 160.351 23.9967 161.223 23.8241C162.572 23.557 163.851 24.2015 166.41 25.4907C186.333 35.5287 200 56.1682 200 80V136C200 169.689 172.689 197 139 197H61C27.3106 197 9.01965e-07 169.689 0 136V80C6.38131e-07 56.1682 13.6667 35.5287 33.5902 25.4907C36.1488 24.2015 37.4282 23.557 38.777 23.8241C39.6488 23.9967 40.6081 24.5875 41.1546 25.2885C42 26.3729 42 27.9565 42 31.1239V42.0636ZM118 34.4C118 36.8292 118 38.0438 117.49 38.9545C117.13 39.5981 116.598 40.1295 115.954 40.49C115.044 41 113.829 41 111.4 41H88.6C86.1708 41 84.9562 41 84.0455 40.49C83.4019 40.1295 82.8705 39.5981 82.51 38.9545C82 38.0438 82 36.8292 82 34.4V25.6C82 23.1708 82 21.9562 82.51 21.0455C82.8705 20.4019 83.4019 19.8705 84.0455 19.51C84.9562 19 86.1708 19 88.6 19H111.4C113.829 19 115.044 19 115.954 19.51C116.598 19.8705 117.13 20.4019 117.49 21.0455C118 21.9562 118 23.1708 118 25.6V34.4Z" fill="url(#paint0_linear_2021_226)"/>
<path d="M159 108.584C127.165 109.531 101.532 135.165 100.585 167L100.528 167C99.581 135.165 73.9472 109.531 42.1123 108.584L42.1123 108.527C73.9471 107.58 99.5816 81.947 100.529 50.1123L100.585 50.1123C101.533 81.9469 127.165 107.58 159 108.527L159 108.584Z" fill="#F9AF52"/>
<path d="M123.408 108.188C111.232 108.551 101.43 118.354 101.067 130.53L101.044 130.53C100.681 118.354 90.8781 108.551 78.7021 108.188L78.7021 108.166C90.8781 107.804 100.681 98.0001 101.044 85.8242L101.067 85.8242C101.43 98 111.232 107.803 123.408 108.166L123.408 108.188Z" fill="white"/>
<defs>
<linearGradient id="paint0_linear_2021_226" x1="0" y1="108" x2="200" y2="108" gradientUnits="userSpaceOnUse">
<stop stop-color="#F4C542"/>
<stop offset="1" stop-color="#FF9A63"/>
</linearGradient>
</defs>
</svg>
