<svg width="127" height="125" viewBox="0 0 127 125" fill="none" xmlns="http://www.w3.org/2000/svg">
<path d="M32.5315 6.98607C32.5315 6.40163 32.5315 6.10941 32.5509 5.86289C32.7938 2.77661 35.2451 0.325286 38.3314 0.0823898C38.5779 0.0629884 38.8701 0.0629883 39.4546 0.0629883C40.039 0.0629883 40.3312 0.0629884 40.5777 0.0823898C43.664 0.325286 46.1154 2.77661 46.3582 5.86289C46.3777 6.10941 46.3777 6.40163 46.3777 6.98607V27.7553C46.3777 28.3397 46.3777 28.6319 46.3582 28.8785C46.1154 31.9648 43.664 34.4161 40.5777 34.659C40.3312 34.6784 40.039 34.6784 39.4546 34.6784C38.8701 34.6784 38.5779 34.6784 38.3314 34.659C35.2451 34.4161 32.7938 31.9648 32.5509 28.8785C32.5315 28.6319 32.5315 28.3397 32.5315 27.7553V6.98607Z" fill="#FBAB55"/>
<path d="M80.3637 6.98607C80.3637 6.40163 80.3637 6.10941 80.3831 5.86289C80.626 2.77661 83.0773 0.325286 86.1636 0.0823898C86.4101 0.0629884 86.7023 0.0629883 87.2867 0.0629883C87.8712 0.0629883 88.1634 0.0629884 88.4099 0.0823898C91.4962 0.325286 93.9475 2.77661 94.1904 5.86289C94.2098 6.10941 94.2098 6.40163 94.2098 6.98607V27.7553C94.2098 28.3397 94.2098 28.6319 94.1904 28.8785C93.9475 31.9648 91.4962 34.4161 88.4099 34.659C88.1634 34.6784 87.8712 34.6784 87.2867 34.6784C86.7023 34.6784 86.4101 34.6784 86.1636 34.659C83.0773 34.4161 80.626 31.9648 80.3831 28.8785C80.3637 28.6319 80.3637 28.3397 80.3637 27.7553V6.98607Z" fill="#FBAB55"/>
<path d="M26.8672 26.5366C26.8672 27.4518 26.8672 27.9094 26.7451 28.2869C26.649 28.5843 26.5439 28.7858 26.3549 29.0348C26.115 29.3508 25.6775 29.6559 24.8024 30.2661C18.4419 34.7012 14.2797 42.0705 14.2797 50.4126V85.6574C14.2797 99.2135 25.2691 110.203 38.8252 110.203H87.9161C101.472 110.203 112.462 99.2135 112.462 85.6574V50.4126C112.462 42.0705 108.299 34.7012 101.939 30.2661C101.064 29.6559 100.626 29.3508 100.386 29.0348C100.197 28.7858 100.092 28.5843 99.9962 28.2869C99.8742 27.9094 99.8741 27.4518 99.8741 26.5366V19.6514C99.8741 17.658 99.8742 16.6613 100.406 15.9788C100.75 15.5377 101.354 15.1658 101.903 15.0571C102.752 14.8891 103.557 15.2947 105.167 16.1061C117.706 22.4237 126.308 35.4136 126.308 50.4126V85.6574C126.308 106.86 109.119 124.049 87.9161 124.049H38.8252C17.6221 124.049 0.433594 106.86 0.433594 85.6574V50.4126C0.433594 35.4136 9.035 22.4237 21.5742 16.1061C23.1846 15.2947 23.9898 14.8891 24.8387 15.0571C25.3874 15.1658 25.9911 15.5377 26.3351 15.9788C26.8672 16.6613 26.8672 17.658 26.8672 19.6514V26.5366Z" fill="#F9AF52"/>
<path d="M74.6993 21.7133C74.6993 23.2422 74.6993 24.0066 74.3783 24.5798C74.1515 24.9849 73.817 25.3193 73.4119 25.5462C72.8388 25.8672 72.0743 25.8672 70.5455 25.8672H56.1958C54.667 25.8672 53.9025 25.8672 53.3294 25.5462C52.9243 25.3193 52.5898 24.9849 52.363 24.5798C52.042 24.0066 52.042 23.2422 52.042 21.7133V16.1749C52.042 14.646 52.042 13.8816 52.363 13.3084C52.5898 12.9033 52.9243 12.5689 53.3294 12.342C53.9025 12.021 54.667 12.021 56.1958 12.021H70.5455C72.0743 12.021 72.8388 12.021 73.4119 12.342C73.817 12.5689 74.1515 12.9033 74.3783 13.3084C74.6993 13.8816 74.6993 14.646 74.6993 16.1749V21.7133Z" fill="#F9AF52"/>
<path fill-rule="evenodd" clip-rule="evenodd" d="M63.6681 31.5315C64.2646 51.5673 80.3971 67.6999 100.433 68.2962V68.3319C80.3969 68.9282 64.2643 85.0612 63.6681 105.097H63.6325C63.0363 85.0612 46.9031 68.9282 26.8672 68.3319V68.2962C46.9031 67.7 63.0367 51.5674 63.6331 31.5315H63.6681ZM63.957 54.0076C63.7289 61.6707 57.5589 67.8408 49.8957 68.0688V68.083C57.5589 68.311 63.7289 74.4811 63.957 82.1442H63.9718C64.1998 74.4811 70.3693 68.3111 78.0324 68.083V68.0688C70.3694 67.8407 64.1999 61.6706 63.9718 54.0076H63.957Z" fill="#F9AF52"/>
</svg>
