<svg width="34" height="33" viewBox="0 0 34 33" fill="none" xmlns="http://www.w3.org/2000/svg">
<rect x="3" y="12" width="28" height="18" fill="#D9D9D9" fill-opacity="0.28"/>
<path d="M7 2.5C7 1.11929 8.11929 0 9.5 0V0C10.8807 0 12 1.11929 12 2.5V5H7V2.5Z" fill="url(#paint0_linear_308_31)"/>
<path d="M23 2.5C23 1.11929 24.1193 0 25.5 0V0C26.8807 0 28 1.11929 28 2.5V5H23V2.5Z" fill="url(#paint1_linear_308_31)"/>
<path d="M10.598 14.92V16.24C10.354 16.24 10.144 16.262 9.968 16.306C9.796 16.346 9.666 16.422 9.578 16.534C9.494 16.642 9.462 16.798 9.482 17.002L9.668 18.772C9.716 19.22 9.666 19.582 9.518 19.858C9.374 20.134 9.152 20.346 8.852 20.494C8.556 20.638 8.206 20.74 7.802 20.8C8.23 20.864 8.592 20.968 8.888 21.112C9.184 21.256 9.4 21.464 9.536 21.736C9.672 22.008 9.716 22.372 9.668 22.828L9.482 24.598C9.462 24.798 9.494 24.954 9.578 25.066C9.666 25.178 9.798 25.254 9.974 25.294C10.15 25.338 10.358 25.36 10.598 25.36V26.68C10.046 26.68 9.578 26.64 9.194 26.56C8.81 26.48 8.502 26.352 8.27 26.176C8.042 26.004 7.884 25.776 7.796 25.492C7.712 25.212 7.69 24.87 7.73 24.466L7.91 22.75C7.942 22.446 7.89 22.208 7.754 22.036C7.622 21.864 7.426 21.744 7.166 21.676C6.906 21.604 6.606 21.568 6.266 21.568V20.032C6.602 20.032 6.9 19.998 7.16 19.93C7.42 19.858 7.618 19.736 7.754 19.564C7.89 19.392 7.942 19.154 7.91 18.85L7.73 17.146C7.686 16.734 7.706 16.386 7.79 16.102C7.878 15.818 8.036 15.59 8.264 15.418C8.496 15.242 8.804 15.116 9.188 15.04C9.576 14.96 10.046 14.92 10.598 14.92Z" fill="url(#paint2_linear_308_31)"/>
<path d="M23.402 14.92V16.24C23.646 16.24 23.856 16.262 24.032 16.306C24.204 16.346 24.334 16.422 24.422 16.534C24.506 16.642 24.538 16.798 24.518 17.002L24.332 18.772C24.284 19.22 24.334 19.582 24.482 19.858C24.626 20.134 24.848 20.346 25.148 20.494C25.444 20.638 25.794 20.74 26.198 20.8C25.77 20.864 25.408 20.968 25.112 21.112C24.816 21.256 24.6 21.464 24.464 21.736C24.328 22.008 24.284 22.372 24.332 22.828L24.518 24.598C24.538 24.798 24.506 24.954 24.422 25.066C24.334 25.178 24.202 25.254 24.026 25.294C23.85 25.338 23.642 25.36 23.402 25.36V26.68C23.954 26.68 24.422 26.64 24.806 26.56C25.19 26.48 25.498 26.352 25.73 26.176C25.958 26.004 26.116 25.776 26.204 25.492C26.288 25.212 26.31 24.87 26.27 24.466L26.09 22.75C26.058 22.446 26.11 22.208 26.246 22.036C26.378 21.864 26.574 21.744 26.834 21.676C27.094 21.604 27.394 21.568 27.734 21.568V20.032C27.398 20.032 27.1 19.998 26.84 19.93C26.58 19.858 26.382 19.736 26.246 19.564C26.11 19.392 26.058 19.154 26.09 18.85L26.27 17.146C26.314 16.734 26.294 16.386 26.21 16.102C26.122 15.818 25.964 15.59 25.736 15.418C25.504 15.242 25.196 15.116 24.812 15.04C24.424 14.96 23.954 14.92 23.402 14.92Z" fill="url(#paint3_linear_308_31)"/>
<rect x="1.5" y="6.5" width="31" height="25" rx="2.5" stroke="url(#paint4_linear_308_31)" stroke-width="3"/>
<path d="M0 12C0 8.13401 3.13401 5 7 5H27C30.866 5 34 8.13401 34 12V12H0V12Z" fill="url(#paint5_linear_308_31)"/>
<path d="M14.824 26.344L13.342 25.666L18.388 15.196L19.858 15.874L14.824 26.344Z" fill="url(#paint6_linear_308_31)"/>
<defs>
<linearGradient id="paint0_linear_308_31" x1="7" y1="2.5" x2="12" y2="2.5" gradientUnits="userSpaceOnUse">
<stop stop-color="#F4C542"/>
<stop offset="1" stop-color="#FF9A63"/>
</linearGradient>
<linearGradient id="paint1_linear_308_31" x1="23" y1="2.5" x2="28" y2="2.5" gradientUnits="userSpaceOnUse">
<stop stop-color="#F4C542"/>
<stop offset="1" stop-color="#FF9A63"/>
</linearGradient>
<linearGradient id="paint2_linear_308_31" x1="5" y1="21" x2="13" y2="21" gradientUnits="userSpaceOnUse">
<stop stop-color="#F4C542"/>
<stop offset="1" stop-color="#FF9A63"/>
</linearGradient>
<linearGradient id="paint3_linear_308_31" x1="29" y1="21" x2="21" y2="21" gradientUnits="userSpaceOnUse">
<stop stop-color="#F4C542"/>
<stop offset="1" stop-color="#FF9A63"/>
</linearGradient>
<linearGradient id="paint4_linear_308_31" x1="0" y1="19" x2="34" y2="19" gradientUnits="userSpaceOnUse">
<stop stop-color="#F4C542"/>
<stop offset="1" stop-color="#FF9A63"/>
</linearGradient>
<linearGradient id="paint5_linear_308_31" x1="0" y1="8.5" x2="34" y2="8.5" gradientUnits="userSpaceOnUse">
<stop stop-color="#F4C542"/>
<stop offset="1" stop-color="#FF9A63"/>
</linearGradient>
<linearGradient id="paint6_linear_308_31" x1="13" y1="21" x2="21" y2="21" gradientUnits="userSpaceOnUse">
<stop stop-color="#F4C542"/>
<stop offset="1" stop-color="#FF9A63"/>
</linearGradient>
</defs>
</svg>
